grf
version=1
nRows=65
nColumns=19
inDegrees=yes
endheader
time	ground_force_1_vx	ground_force_1_vy	ground_force_1_vz	ground_force_1_px	ground_force_1_py	ground_force_1_pz	ground_moment_1_mx	ground_moment_1_my	ground_moment_1_mz	ground_force_2_vx	ground_force_2_vy	ground_force_2_vz	ground_force_2_px	ground_force_2_py	ground_force_2_pz	ground_moment_2_mx	ground_moment_2_my	ground_moment_2_mz
4.135000	3.825263	732.922663	-59.621888	0.134410	0.000000	-1.057768	0.000000	2.621904	0.000000	17.019225	727.817799	62.189541	0.125410	0.000000	-1.388536	-0.000000	-0.227553	0.000000
4.136000	3.696248	731.958793	-59.728547	0.135099	0.000000	-1.057591	0.000000	2.609053	0.000000	16.753765	726.710481	62.129346	0.124469	0.000000	-1.387121	-0.000000	-0.218599	0.000000
4.137000	3.564248	730.948038	-59.822391	0.135319	0.000000	-1.058085	0.000000	2.596002	0.000000	16.488513	725.549481	62.071646	0.124933	0.000000	-1.388470	-0.000000	-0.209653	0.000000
4.138000	3.428649	729.892444	-59.903589	0.135951	0.000000	-1.055872	0.000000	2.582734	0.000000	16.223703	724.336209	62.015973	0.124059	0.000000	-1.388316	-0.000000	-0.200600	0.000000
4.139000	3.289024	728.793831	-59.972331	0.135298	0.000000	-1.056825	0.000000	2.569279	0.000000	15.959669	723.071904	61.961832	0.125347	0.000000	-1.388375	-0.000000	-0.191350	0.000000
4.140000	3.145090	727.654002	-60.028881	0.135422	0.000000	-1.057630	0.000000	2.555690	0.000000	15.696811	721.757601	61.908751	0.125216	0.000000	-1.387633	-0.000000	-0.181847	0.000000
4.141000	2.996622	726.474615	-60.073607	0.135273	0.000000	-1.056000	0.000000	2.542020	0.000000	15.435567	720.394055	61.856323	0.124837	0.000000	-1.387406	-0.000000	-0.172051	0.000000
4.142000	2.843442	725.256936	-60.106918	0.134867	0.000000	-1.059500	0.000000	2.528312	0.000000	15.176409	718.981759	61.804192	0.125413	0.000000	-1.387376	-0.000000	-0.161932	0.000000
4.143000	2.685484	724.001509	-60.129178	0.135138	0.000000	-1.061097	0.000000	2.514597	0.000000	14.919848	717.521410	61.752047	0.126107	0.000000	-1.389002	-0.000000	-0.151481	0.000000
4.144000	2.522928	722.707654	-60.140663	0.135527	0.000000	-1.057012	0.000000	2.500888	0.000000	14.666408	716.014403	61.699664	0.126127	0.000000	-1.388396	-0.000000	-0.140723	0.000000
4.145000	2.356226	721.373197	-60.141585	0.136052	0.000000	-1.056178	0.000000	2.487184	0.000000	14.416514	714.462573	61.646900	0.125647	0.000000	-1.387823	0.000000	-0.129723	0.000000
4.146000	2.185985	719.994824	-60.132172	0.137221	0.000000	-1.056361	0.000000	2.473482	0.000000	14.170410	712.867745	61.593639	0.127222	0.000000	-1.390984	0.000000	-0.118568	0.000000
4.147000	2.012821	718.568809	-60.112723	0.137378	0.000000	-1.055259	0.000000	2.459781	0.000000	13.928216	711.231854	61.539785	0.124962	0.000000	-1.387586	0.000000	-0.107357	0.000000
4.148000	1.837288	717.091919	-60.083623	0.136045	0.000000	-1.052221	-0.000000	2.446086	0.000000	13.690028	709.557096	61.485288	0.126552	0.000000	-1.388444	0.000000	-0.096193	0.000000
4.149000	1.659864	715.562248	-60.045331	0.136891	0.000000	-1.057436	-0.000000	2.432414	-0.000000	13.455934	707.845681	61.430143	0.127275	0.000000	-1.390513	0.000000	-0.085179	0.000000
4.150000	1.480952	713.979305	-59.998358	0.137126	0.000000	-1.054235	-0.000000	2.418782	-0.000000	13.225964	706.099505	61.374388	0.126843	0.000000	-1.388097	0.000000	-0.074410	0.000000
4.151000	1.300898	712.343424	-59.943207	0.136330	0.000000	-1.055611	-0.000000	2.405194	-0.000000	13.000070	704.320009	61.318061	0.126646	0.000000	-1.388344	0.000000	-0.063953	0.000000
4.152000	1.120008	710.655444	-59.880358	0.137144	0.000000	-1.055188	-0.000000	2.391636	-0.000000	12.778135	702.508180	61.261145	0.126839	0.000000	-1.386443	0.000000	-0.053858	0.000000
4.153000	0.938582	708.916611	-59.810297	0.136212	0.000000	-1.056876	0.000000	2.378074	-0.000000	12.559967	700.664611	61.203541	0.128172	0.000000	-1.389833	0.000000	-0.044164	0.000000
4.154000	0.756979	707.128078	-59.733575	0.136979	0.000000	-1.055482	0.000000	2.364483	-0.000000	12.345229	698.789506	61.145089	0.128011	0.000000	-1.389053	0.000000	-0.034885	0.000000
4.155000	0.575609	705.290430	-59.650835	0.136900	0.000000	-1.056422	0.000000	2.350866	-0.000000	12.133453	696.882830	61.085626	0.130382	0.000000	-1.392639	0.000000	-0.025993	0.000000
4.156000	0.394856	703.404145	-59.562771	0.135938	0.000000	-1.056835	0.000000	2.337232	-0.000000	11.924199	694.944973	61.025039	0.127645	0.000000	-1.388798	0.000000	-0.017448	0.000000
4.157000	0.215015	701.470641	-59.469987	0.136189	0.000000	-1.058020	0.000000	2.323589	0.000000	11.717183	692.977339	60.963257	0.128197	0.000000	-1.390370	0.000000	-0.009228	0.000000
4.158000	0.036288	699.492484	-59.372890	0.137716	0.000000	-1.056364	0.000000	2.309930	0.000000	11.512266	690.982201	60.900222	0.126672	0.000000	-1.387049	0.000000	-0.001346	0.000000
4.159000	-0.141200	697.472551	-59.271753	0.137761	0.000000	-1.054964	0.000000	2.296234	0.000000	11.309384	688.962273	60.835906	0.128173	0.000000	-1.389493	0.000000	0.006163	0.000000
4.160000	-0.317420	695.413517	-59.166832	0.139540	0.000000	-1.053443	0.000000	2.282462	0.000000	11.108519	686.920444	60.770299	0.128301	0.000000	-1.389395	0.000000	0.013251	0.000000
4.161000	-0.492477	693.318198	-59.058418	0.136894	0.000000	-1.056444	0.000000	2.268549	0.000000	10.909672	684.859421	60.703327	0.126535	0.000000	-1.385361	0.000000	0.019887	0.000000
4.162000	-0.666592	691.189746	-58.946751	0.137709	0.000000	-1.056672	0.000000	2.254398	0.000000	10.712844	682.781150	60.634787	0.127525	0.000000	-1.387695	0.000000	0.026063	0.000000
4.163000	-0.839914	689.031253	-58.831874	0.137664	0.000000	-1.056280	0.000000	2.239924	0.000000	10.518021	680.686411	60.564419	0.128481	0.000000	-1.388859	0.000000	0.031766	0.000000
4.164000	-1.012347	686.845463	-58.713616	0.136984	0.000000	-1.051925	0.000000	2.225108	0.000000	10.325227	678.574921	60.491998	0.129149	0.000000	-1.387994	0.000000	0.036954	0.000000
4.165000	-1.183612	684.634968	-58.591668	0.137942	0.000000	-1.060209	0.000000	2.209978	0.000000	10.134640	676.445753	60.417360	0.130886	0.000000	-1.391641	0.000000	0.041574	0.000000
4.166000	-1.353404	682.402305	-58.465633	0.138632	0.000000	-1.055793	0.000000	2.194552	0.000000	9.946654	674.297965	60.340374	0.128963	0.000000	-1.389471	0.000000	0.045590	0.000000
4.167000	-1.521479	680.149834	-58.335070	0.138773	0.000000	-1.055520	0.000000	2.178808	0.000000	9.761773	672.131285	60.260904	0.129052	0.000000	-1.389843	0.000000	0.048991	0.000000
4.168000	-1.687645	677.879984	-58.199603	0.138623	0.000000	-1.055743	0.000000	2.162711	0.000000	9.580432	669.946275	60.178827	0.129414	0.000000	-1.390372	0.000000	0.051798	0.000000
4.169000	-1.851668	675.595690	-58.059012	0.137988	0.000000	-1.054905	0.000000	2.146261	0.000000	9.402965	667.743938	60.094075	0.129136	0.000000	-1.387868	0.000000	0.054052	0.000000
4.170000	-2.013238	673.300538	-57.913233	0.137095	0.000000	-1.056811	0.000000	2.129515	0.000000	9.229637	665.525349	60.006695	0.129206	0.000000	-1.389468	0.000000	0.055797	0.000000
4.171000	-2.172039	670.998690	-57.762314	0.138467	0.000000	-1.055025	0.000000	2.112557	0.000000	9.060639	663.291531	59.916891	0.130774	0.000000	-1.389444	0.000000	0.057039	0.000000
4.172000	-2.327825	668.694732	-57.606392	0.137350	0.000000	-1.056279	0.000000	2.095468	0.000000	8.896042	661.043525	59.824985	0.129762	0.000000	-1.391263	0.000000	0.057750	0.000000
4.173000	-2.480439	666.393385	-57.445686	0.138416	0.000000	-1.059828	0.000000	2.078316	0.000000	8.735755	658.782683	59.731313	0.130444	0.000000	-1.389940	0.000000	0.057887	0.000000
4.174000	-2.629803	664.099040	-57.280509	0.136281	0.000000	-1.056853	0.000000	2.061159	0.000000	8.579549	656.510864	59.636146	0.129687	0.000000	-1.389357	0.000000	0.057406	0.000000
4.175000	-2.775928	661.815446	-57.111258	0.138787	0.000000	-1.057397	0.000000	2.044051	0.000000	8.427135	654.230245	59.539683	0.129254	0.000000	-1.389323	0.000000	0.056254	0.000000
4.176000	-2.918857	659.545784	-56.938359	0.138638	0.000000	-1.055394	0.000000	2.027060	0.000000	8.278234	651.942976	59.442066	0.131104	0.000000	-1.390681	0.000000	0.054371	0.000000
4.177000	-3.058617	657.292843	-56.762216	0.138318	0.000000	-1.058202	0.000000	2.010286	0.000000	8.132596	649.651008	59.343402	0.127504	0.000000	-1.385485	0.000000	0.051689	0.000000
4.178000	-3.195235	655.058997	-56.583246	0.140425	0.000000	-1.056808	0.000000	1.993842	0.000000	7.990001	647.355932	59.243817	0.130730	0.000000	-1.388349	0.000000	0.048123	0.000000
4.179000	-3.328772	652.846347	-56.401916	0.138784	0.000000	-1.058120	0.000000	1.977834	0.000000	7.850241	645.058815	59.143493	0.130708	0.000000	-1.390298	0.000000	0.043560	0.000000
4.180000	-3.459304	650.656800	-56.218692	0.139544	0.000000	-1.062545	0.000000	1.962341	0.000000	7.713125	642.760397	59.042670	0.131612	0.000000	-1.390983	0.000000	0.037871	0.000000
4.181000	-3.586930	648.491294	-56.033877	0.137878	0.000000	-1.056844	0.000000	1.947394	0.000000	7.578515	640.461589	58.941602	0.130574	0.000000	-1.390339	0.000000	0.030957	0.000000
4.182000	-3.711840	646.348899	-55.847462	0.139821	0.000000	-1.055779	0.000000	1.932967	0.000000	7.446299	638.163761	58.840513	0.130618	0.000000	-1.389674	0.000000	0.022799	0.000000
4.183000	-3.834353	644.227280	-55.659165	0.139052	0.000000	-1.056049	0.000000	1.918987	0.000000	7.316314	635.868684	58.739548	0.130265	0.000000	-1.388712	0.000000	0.013476	0.000000
4.184000	-3.954877	642.123995	-55.468604	0.139187	0.000000	-1.056172	0.000000	1.905363	0.000000	7.188378	633.578257	58.638754	0.131521	0.000000	-1.390518	0.000000	0.003124	0.000000
4.185000	-4.073836	640.037104	-55.275382	0.139438	0.000000	-1.055941	0.000000	1.891997	0.000000	7.062342	631.294232	58.538146	0.131028	0.000000	-1.388949	0.000000	-0.008117	0.000000
4.186000	-4.191631	637.965228	-55.079115	0.138839	0.000000	-1.055669	0.000000	1.878791	0.000000	6.938085	629.018075	58.437849	0.130827	0.000000	-1.390648	0.000000	-0.020137	0.000000
4.187000	-4.308626	635.907718	-54.879488	0.139496	0.000000	-1.055353	0.000000	1.865650	0.000000	6.815508	626.750865	58.338161	0.131886	0.000000	-1.389822	0.000000	-0.032857	0.000000
4.188000	-4.425099	633.864530	-54.676300	0.138846	0.000000	-1.056504	-0.000000	1.852499	0.000000	6.694555	624.493266	58.239482	0.130596	0.000000	-1.389644	0.000000	-0.046228	0.000000
4.189000	-4.541209	631.835747	-54.469424	0.138399	0.000000	-1.057542	-0.000000	1.839293	0.000000	6.575203	622.245628	58.142194	0.131397	0.000000	-1.391574	0.000000	-0.060232	0.000000
4.190000	-4.657057	629.821396	-54.258768	0.139099	0.000000	-1.056061	-0.000000	1.826003	0.000000	6.457440	620.008182	58.046605	0.129865	0.000000	-1.391743	0.000000	-0.074882	0.000000
4.191000	-4.772764	627.821611	-54.044290	0.139741	0.000000	-1.056155	-0.000000	1.812613	0.000000	6.341273	617.781029	57.952961	0.131189	0.000000	-1.390301	0.000000	-0.090224	0.000000
4.192000	-4.888498	625.836781	-53.826036	0.137778	0.000000	-1.056780	-0.000000	1.799128	0.000000	6.226747	615.563853	57.861464	0.131843	0.000000	-1.391435	0.000000	-0.106326	0.000000
4.193000	-5.004481	623.867429	-53.604152	0.139318	0.000000	-1.057850	-0.000000	1.785571	0.000000	6.113938	613.355870	57.772281	0.129921	0.000000	-1.386814	0.000000	-0.123270	0.000000
4.194000	-5.121014	621.913914	-53.378843	0.139487	0.000000	-1.056378	-0.000000	1.771973	0.000000	6.002891	611.156104	57.685518	0.133798	0.000000	-1.394684	0.000000	-0.141135	0.000000
4.195000	-5.238452	619.976337	-53.150335	0.139176	0.000000	-1.060446	-0.000000	1.758360	0.000000	5.893570	608.963731	57.601227	0.132898	0.000000	-1.391433	0.000000	-0.159985	0.000000
4.196000	-5.357135	618.054634	-52.918875	0.138723	0.000000	-1.063152	-0.000000	1.744752	0.000000	5.785846	606.778214	57.519414	0.133006	0.000000	-1.391512	0.000000	-0.179839	0.000000
4.197000	-5.477340	616.148430	-52.684758	0.137556	0.000000	-1.054523	-0.000000	1.731166	0.000000	5.679542	604.598864	57.440024	0.130933	0.000000	-1.389382	0.000000	-0.200674	0.000000
4.198000	-5.599271	614.256632	-52.448297	0.138643	0.000000	-1.057284	-0.000000	1.717624	0.000000	5.574503	602.424249	57.362892	0.131634	0.000000	-1.389479	0.000000	-0.222444	0.000000
4.199000	-5.723028	612.377341	-52.209793	0.141100	0.000000	-1.053926	-0.000000	1.704147	0.000000	5.470614	600.252203	57.287757	0.132706	0.000000	-1.390961	0.000000	-0.245106	0.000000
